<svg xmlns="http://www.w3.org/2000/svg" width="104" height="100" fill="none" viewBox="0 0 104 100">
    <path fill="#F9A01B" d="M30.388 65.47H6c-3.314 0-6 2.687-6 6V94c0 3.314 2.686 6 6 6h24.388c3.313 0 6-2.686 6-6V71.47c0-3.313-2.687-6-6-6z"/>
    <path fill="#880063" d="M64.917 65.47h-22.53c-3.313 0-6 2.687-6 6V94c0 3.314 2.687 6 6 6h22.53c3.314 0 6-2.686 6-6V71.47c0-3.313-2.686-6-6-6zM30.388 31.096H6c-3.314 0-6 2.686-6 6v22.53c0 3.313 2.686 6 6 6h24.388c3.313 0 6-2.687 6-6v-22.53c0-3.314-2.687-6-6-6z"/>
    <path fill="#F9A01B" d="M98.335 14.187L78.958 3c-2.87-1.657-6.54-.674-8.197 2.196L58.645 26.182c-1.657 2.87-.674 6.54 2.196 8.197l19.377 11.187c2.87 1.657 6.54.673 8.197-2.196l12.116-20.986c1.657-2.87.674-6.54-2.196-8.197z"/>
</svg>
