<svg xmlns="http://www.w3.org/2000/svg" width="76" height="67" fill="none" viewBox="0 0 76 67">
    <path fill="#F9A01B" d="M22.297 18.581c0 7.497-3.64 12.473-6.026 14.929-1.073 1.105-2.786.901-3.786-.272L1.657 20.527c-.955-1.121-.955-2.77 0-3.891L12.485 3.925c1-1.173 2.713-1.377 3.786-.272 2.386 2.456 6.026 7.432 6.026 14.928z"/>
    <path fill="#880063" d="M30.297 33.446c0 16.372 8.89 26.734 13.522 31.022 1.49 1.38 3.743 1.111 5.076-.422l24.338-27.982c1.307-1.502 1.31-3.737.006-5.243L48.894 2.701c-1.332-1.538-3.588-1.81-5.08-.426-4.634 4.3-13.517 14.69-13.517 31.17z"/>
</svg>
