<svg xmlns="http://www.w3.org/2000/svg" width="81" height="72" fill="none" viewBox="0 0 81 72">
    <path fill="#880063" d="M0 6c0-3.314 2.686-6 6-6h51.485c3.313 0 6 2.686 6 6v59.227c0 3.313-2.687 6-6 6H6c-3.314 0-6-2.687-6-6V6z"/>
    <path fill="#fff" d="M12 15c0-1.105.895-2 2-2h30c1.105 0 2 .895 2 2v1c0 1.105-.895 2-2 2H14c-1.105 0-2-.895-2-2v-1zM12 25c0-1.105.895-2 2-2h37c1.105 0 2 .895 2 2v1c0 1.105-.895 2-2 2H14c-1.105 0-2-.895-2-2v-1zM12 35c0-1.105.895-2 2-2h29c1.105 0 2 .895 2 2v1c0 1.105-.895 2-2 2H14c-1.105 0-2-.895-2-2v-1z"/>
    <path fill="#F9A01B" d="M70.794 28.938c.766-.794 2.03-.819 2.826-.054l5.196 4.997c.786.755.822 2.001.08 2.801L54.885 62.586c-.378.409-.91.64-1.467.64H47.4c-1.249 0-2.192-1.132-1.967-2.36l1.161-6.337c.071-.387.255-.744.528-1.027l23.672-24.564z"/>
</svg>
